<?xml version="1.0" encoding="utf-8"?>
<!-- Generator: Adobe Illustrator 19.2.1, SVG Export Plug-In . SVG Version: 6.00 Build 0)  -->
<svg version="1.1" id="" xmlns="http://www.w3.org/2000/svg" xmlns:xlink="http://www.w3.org/1999/xlink" x="0px" y="0px"
	 viewBox="0 0 3000 3000" style="enable-background:new 0 0 3000 3000;" xml:space="preserve">
	 <g id="icon_whole">
		 <style id="styles" type="text/css">
		.stDef {
				fill:none;
				stroke:#FFFFFF;
				opacity:1d;
				stroke-miterlimit:10;
				stroke-width:25;
		}
		.stCircleBig {
				stroke-dashoffset: 10000;
				stroke-dasharray: 10000;
				stroke-width:30;
		}
		.stCircleInner {
				stroke-dashoffset: -7000;
				stroke-dasharray: 7000;
		}
		.stHidden {
				fill: #000;
		}
		.stBigLine {
				stroke-dashoffset: 2000;
				stroke-dasharray: 2000;
		}
		.stAngle {
				stroke-dashoffset: 2000;
				stroke-dasharray: 2000;
		}
		.stSmallCircle {
				stroke-dashoffset: 1000;
				stroke-dasharray: 1000;
		}
		.stSmallLine {
				stroke-dashoffset: 1000;
				stroke-dasharray: 1000;
		}
		.stMiddleCircle {
				stroke-dashoffset: 2000;
				stroke-dasharray: 2000;
		}
		.stKey {
				fill: #ffffff;
				opacity:0;
		}

	</style>

	<g id="icon" mask="url('#maskSir50cp67h')">
		<circle id="outerCircle" class="stDef stCircleBig" cx="1500" cy="1474" r="934.6" style="stroke-dashoffset: 0px;"></circle>
		<circle id="innerCircle" class="stDef stCircleInner" cx="1500" cy="1474" r="777.7" mask="url('#maskSir50cp679')" style="stroke-dashoffset: 0px;"></circle>

		<g id="bigTriangles" mask="url('#maskSir50cp67c')">
			<line id="bigLine1" class="stDef stBigLine" x1="1500" y1="2408.3" x2="690.2" y2="996.3" style="stroke-dashoffset: 0px;"></line>
			<line id="bigLine2" class="stDef stBigLine" x1="687.7" y1="998.8" x2="2314.6" y2="998.8" style="stroke-dashoffset: 0px;"></line>
			<line id="bigLine3" class="stDef stBigLine" x1="2312.3" y1="994.7" x2="1495.3" y2="2416.4" style="stroke-dashoffset: 0px;"></line>
			<line id="bigLine4" class="stDef stBigLine" x1="1499.6" y1="539.1" x2="2313.4" y2="1948.8" style="stroke-dashoffset: 0px;"></line>
			<line id="bigLine5" class="stDef stBigLine" x1="2310.9" y1="1944" x2="684.1" y2="1948.5" style="stroke-dashoffset: 0px;"></line>
			<line id="bigLine6" class="stDef stBigLine" x1="690" y1="1956.7" x2="1503" y2="532.7" style="stroke-dashoffset: 0px;"></line>
		</g>
		<g id="angleLines" mask="url('#maskSir50cp67f')">
			<line id="angleLine1" class="stDef stAngle" x1="2310.9" y1="1944" x2="687.7" y2="998.8" style="stroke-dashoffset: 0px;"></line>
			<line id="angleLine2" class="stDef stAngle" x1="695.9" y1="1946.3" x2="2314.6" y2="998.8" style="stroke-dashoffset: 0px;"></line>
			<line id="angleLine3" class="stDef stAngle" x1="1500" y1="539.1" x2="1500" y2="2408.3" style="stroke-dashoffset: 0px;"></line>
		</g>
		<g id="smallCircles">
			<circle id="smallCircle1" class="stDef stSmallCircle" cx="1501.1" cy="998.8" r="102.4" style="stroke-dashoffset: 0px;"></circle>
			<circle id="smallCircle2" class="stDef stSmallCircle" cx="1902" cy="1236.2" r="102.4" style="stroke-dashoffset: 0px;"></circle>
			<circle id="smallCircle3" class="stDef stSmallCircle" cx="1903.2" cy="1706.6" r="102.4" style="stroke-dashoffset: 0px;"></circle>
			<circle id="smallCircle4" class="stDef stSmallCircle" cx="1497.5" cy="1946.3" r="102.4" style="stroke-dashoffset: 0px;"></circle>
			<circle id="smallCircle5" class="stDef stSmallCircle" cx="1096.5" cy="1711.8" r="102.4" style="stroke-dashoffset: 0px;"></circle>
			<circle id="smallCircle6" class="stDef stSmallCircle" cx="1099.9" cy="1238.8" r="102.4" style="stroke-dashoffset: 0px;"></circle>
		</g>
			<g id="smallTriangles">
				<line id="smallLine1" class="stDef stSmallLine" x1="1198.9" y1="1711.8" x2="1800.8" y2="1706.6" style="stroke-dashoffset: 0px;"></line>
				<line id="smallLine2" class="stDef stSmallLine" x1="1096.5" y1="1609.3" x2="1420.7" y2="1062.1" style="stroke-dashoffset: 0px;"></line>
				<line id="smallLine3" class="stDef stSmallLine" x1="1581.8" y1="1061.9" x2="1903.2" y2="1604.1" style="stroke-dashoffset: 0px;"></line>
				<line id="smallLine4" class="stDef stSmallLine" x1="1430.3" y1="1873.6" x2="1108.9" y2="1331.4" style="stroke-dashoffset: 0px;"></line>
				<line id="smallLine5" class="stDef stSmallLine" x1="1902.0" y1="1338.7" x2="1569.8" y2="1873.6" style="stroke-dashoffset: 0px;"></line>
				<line id="smallLine6" class="stDef stSmallLine" x1="1801.2" y1="1207.3" x2="1199.4" y2="1212.5" style="stroke-dashoffset: 0px;"></line>
			</g>
			<circle id="middleCircle" class="stDef stMiddleCircle" cx="1500" cy="1465.2" r="156.5" style="stroke-dashoffset: 0px;"></circle>
			<path id="key" class="stKey" d="M1735,2263.6c-2.3-4.3-1.7-8.7-0.7-15s14.3-18.7,14.7-65.7c-2-159.3-154.3-183.9-169.1-183.9
					c-14.8,0-28.3,3.6-28.3,3.6s0.1-60.4,0.1-66.1s-7.7-13.1-9-14.4s-0.9-1.6-0.9-1.6s-0.5-3.4-0.6-4.7c-0.1-1.3-0.5-12.8,13.6-12.9
					s25.1-15.6,25.8-33.1c0.7-17.5-12.5-31.2-26.6-31.3c-14.1-0.1-13-13.2-12.7-13.5s0.6-11.8,11.9-13c14.6-1.2,27.4-11.2,27.4-32.4
					s-16.1-31.7-26.9-31.9c-10.8-0.2-12.5-9.8-12.5-13.5s2.3-12.9,12.9-13.1s26.4-8,26.7-33.2c0.3-25.2-22.1-31.9-22.1-31.9
					s-3.6,0.2-9.2,0s-7.4-9.4-7.4-9.4s0,0,0.4-7.8c9.1-7,9.7-15.2,9.7-15.2l0.2-860.8c0,0,35.2,0.1,42.6,0s8.2-7.9,8.2-7.9
					s0-22.7,0.1-29.8s6.6-7.1,6.6-7.1s15.5-0.2,22-0.2s7.8,6.8,7.8,6.8s-0.5,19.9-0.3,28.8c0.2,8.9,6.8,9.4,6.8,9.4s115.3,0.1,121.8,0
					s6-7.2,6-7.2s0-99.4,0-106s-5.8-6.5-5.8-6.5s-35.1,0.3-41.6,0.3s-5.8,7.5-5.8,7.5s0.1,25.5,0,31.7s-4.3,6.1-4.3,6.1
					s-17.6,0.6-23,0.4c-5.4-0.2-5.8-6.1-5.8-6.1s-0.2-21.8-0.1-30.2s-7.5-9.1-7.5-9.1s-61.8,0.3-70.3,0.4c-8.5,0.1-7.1-7.7-7.1-7.7
					s0.3-15.8,0.4-22.3s7.4-7.6,7.4-7.6s59.8,0.3,68,0s8.1-7.1,8.1-7.1s0.3-25.6,0.4-32.2s6.7-6.7,6.7-6.7s14.3-0.1,21.5,0
					s6.4,6.4,6.4,6.4v32.2c-0.2,6.8,5.5,7.4,5.5,7.4s37.1,0.1,41.6,0s4.8-6.5,4.8-6.5v-36.1c0,0,0.1-64.7,0-70.5s-4.7-5.3-4.7-5.3
					s-110.8-0.3-120.1-0.2c-9.3,0.1-8.5,5.1-8.5,5.1s0.3,27.1,0,33.2s-6.2,7-6.2,7s-25.9-3-28.6-3.3s-2.5-3.2-2.5-3.2s0.2-25.1,0-31.9
					s-6-6.3-6-6.3h-45.3c0,0-0.3-42.3-0.6-48.8s-6.5-10.3-7.8-10.6c-1.3-0.3-1.9-1.8-1.9-1.8s-0.2,1.7,0.2-8.1s7.9-10.9,7.9-10.9
					s-22.8-1.1,4.4,0c27.2,1.1,26.6-28.6,26.6-28.6s-0.7,7.8,0-11s-20.5-25-20.5-25s-7.9-0.5-8.7-0.5c-0.8,0-1.9-0.2-4.8-1
					s-3.7-5-4-5.5s-0.7-4.4-0.7-5.2s-0.5-0.3,0.6-7.1c2.2-1.8,5-3.3,6.7-11.3c-22.2-60.2-49-54.7-49-54.7
					c-36.3,1.7-51.3,51.5-51.7,52.8c-0.3,1.3-2.7,0-0.3,7c7.7,3,7.7,7.7,7.7,7.7s1,5,0.7,7.3s1.7,10.3-13.3,11s-25.7,10-26,32
					s19.7,32.3,26.3,31.3c6.7-1,10.3,5,12,7.7s1.7,8.3,0,14c-10.3,1.3-10,12.3-10,12.3s-0.3,1170.7,0.7,1180.7s5.7,12.3,9,15.3
					s0.7,8.3-1.3,13.7s-8.7,6-9,5.7s-30,0-28,32.7s35,33.7,35,33.7s0,0,1.7,4c3.7,2.7,2.3,11.3,1.7,13.3s-3,6-9.7,7.7
					c-19.2,0.3-26.1,15.8-27.8,24.9c0.1,0.5,0.2,3.3,0.2,11.1c0,24.7,23.7,28.3,30.7,28.7c7,0.3,8.3,9.3,8.7,13.3s-0.7,6.7-4.3,10.3
					c-6.3,0.7-36.7,4.7-35.7,35s27.7,31.3,33.7,32.3s7.7,10,7.7,11.7s-1,5.7-4.7,9.3c-6,3-8,10.7-8,10.7s0.3,67.3-0.7,67
					s-31-2.7-36.7-1.3c-133,17.3-154.7,132.3-160.3,167c-5.7,34.7,15.3,80.3,17,82.3s0.3,7.7-0.3,14c-33.3,19-59.7,111.7-60.7,167.7
					s48.3,197.7,153.3,199.7s141-85,141-85h1.7c2.7,7.7,38.7,83.3,136,85s158-123.3,158-208.7C1794,2337.9,1737.3,2267.9,1735,2263.6z
					 M1626,2547.4c-44.3,0-75.3-29-73.8-64s18.8-58,41-56.8c21.3,4.3,22.8,9.5,27.3,13.8s9.3,5.8,13.5,6s28-1.5,28.8-29
					s-40-55-73.5-54.8s-67.8,17.3-89.3,62.8c-0.7,0.1-1.1,0.2-1.4,0.3c-2.1-4-34.7-65.9-87.1-62.5c-54.3,3.5-72.8,25-76.8,53.8
					c2.3,30.5,27.5,30,27.5,30s8.5-0.3,15.3-7s15.3-13.3,26-13s21.3,3.3,27,12.5s14.8,15.8,14.5,39.8s-21,71-68,68.3
					s-86.8-41-86.5-111c1.5-33.5,9.3-53,14.5-60s17-29.5,24-36.5s12.8-10,30.5-11.5s75.3-16,87.8-29.5s29.8-29,30.5-65.8
					s-16.3-97.3-59.3-98.3c-8.8-0.5-24.8,7.3-23.8,27.5s1.5,11,3,15.5s6.5,10.8,10.8,13.3s11.8,12,12,16.3s0.8,18,0.8,18
					s1.3,33-43.8,37.3s-58-63.8-57-73.3s-4.5-81.1,92-93.8c11.5,0,43.3,7.8,50.4,13.1s20.3,18.8,24.1,21.5s7.2,5.2,11.8,4.5
					c0,0,5.8,1.5,15-8.5s20-18.5,30.3-22s25-9.3,39.8-8.5s92.8,15.5,93,88.5s-55,78.5-55,78.5s-38.5-1-45.8-40
					c2-21.3,7.5-27.8,11.8-30.3c4.2-2.5,9.2-7.8,10.2-10.3s7.8-16,4.3-25.5s-5.7-18-14.5-20.5s-23.3-2.3-33,8s-25.5,29.5-28.8,40.5
					s-6.5,26.8-6.3,41s1.3,60.8,46.8,82.5s55.8,16.3,72,20.3c11.3,0,19,1.5,24.5,7.5s43.5,45.3,44,103.5S1670.3,2547.4,1626,2547.4z" style="opacity: 1;"></path>
	</g>
	<g id="text" opacity="0" fill="#ffffff" style="opacity: 1;">
		<path d="M1699.3,1603c0,27-15.8,40.5-46.8,40.5h-39.1V1275h39.1c31,0,46.8,13.5,46.8,40.5V1603z M1665.6,1315
			c0-9.9-4-14.9-12.1-14.9h-7.2v315.9h7.2c8.1,0,12.1-5,12.1-14.4V1315z"></path>
		<path d="M1778.5,1643.5c0-3.1-0.4-7.6-0.9-13.9c-5.4,11.2-13,16.6-23,16.6c-16.6,0-28.8-14.4-28.8-31v-135
			c0-9.4,8.5-19.3,25.7-30.1c17.1-10.8,25.6-23,25.6-35.1v-113.8c0-6.3-3.6-9.4-10.8-9.4s-10.8,3.1-10.8,9.4v119.7h-29.7v-116.5
			c0-22.9,13.5-34.6,40.5-34.6c28.3,0,42.8,11.7,42.8,34.6v328.5c0,4,0,7.7,0.4,10.8H1778.5z M1777.2,1455
			c-19.8,12.1-21.6,14.9-21.6,24.3v132.3c0,6.8,3.6,9.9,10.8,9.9s10.8-4.5,10.8-10.8V1455z"></path>
		<path d="M1893.7,1643.5c-3.1-6.8-4.5-20.3-4.5-41.4v-123.3c0-9.5-6.3-14-19.3-14v178.6H1837v-369.4h39.1c31,0,46.8,13.5,46.8,40.5
			v98.5c0,21.1-10.8,33.8-32.8,38.2c22,1.8,32.8,12.2,32.8,31.5V1603c0,19.3,1.8,32.8,5.4,40.5H1893.7z M1889.2,1314.1
			c0-9.4-4-14.4-12.1-14.4h-7.2v137.7h7.2c8.1,0,12.1-4.9,12.1-14.9V1314.1z"></path>
		<path d="M2042.2,1275l-30.6,176.4l29.7,192.1h-35.1l-23.4-183.1v183.1h-33.8V1275h33.8v173.2L2008,1275H2042.2z"></path>
		<path d="M2154.3,1643.5c0-3.1-0.4-7.6-0.9-13.9c-5.4,11.2-13,16.6-23,16.6c-16.6,0-28.8-14.4-28.8-31v-135
			c0-9.4,8.5-19.3,25.7-30.1c17.1-10.8,25.6-23,25.6-35.1v-113.8c0-6.3-3.6-9.4-10.8-9.4s-10.8,3.1-10.8,9.4v119.7h-29.7v-116.5
			c0-22.9,13.5-34.6,40.5-34.6c28.3,0,42.8,11.7,42.8,34.6v328.5c0,4,0,7.7,0.4,10.8H2154.3z M2152.9,1455
			c-19.8,12.1-21.6,14.9-21.6,24.3v132.3c0,6.8,3.6,9.9,10.8,9.9s10.8-4.5,10.8-10.8V1455z"></path>
		<path d="M2294.7,1303.8h-28.8v339.7h-33.3v-339.7h-28.8V1275h90.9V1303.8z"></path>
		<path d="M2394.6,1303.8h-28.8v339.7h-33.3v-339.7h-28.8V1275h90.9V1303.8z"></path>
		<path d="M2445.4,1643.5h-32.8V1275h32.8V1643.5z"></path>
		<path d="M2558.4,1605.7c0,28.4-14,42.8-42.3,42.8s-42.8-14.4-42.8-42.8v-293.4c0-28.3,14.4-42.7,42.8-42.7s42.3,14.4,42.3,42.7
			v112.5h-32.8v-115.2c0-8.5-3.2-13-9.5-13s-9.5,4.5-9.5,13v297.4c0,9,3.2,13.5,9.5,13.5s9.5-4.5,9.5-13.5v-128.2h32.8V1605.7z"></path>
</g>
	</g>

	<g id="clipTriangle" clip-rule="nonzero">
			<circle fill="#ffffff" cx="1500" cy="1474" r="934.6"/>
			<polygon class="stHidden" points="709.7,1008.5 2290.2,1008.5 1499.9,2381.7"/>
			<polygon class="stHidden" points="2291.4,1931.3 710.9,1931.3 1501.1,558.1"/>
	</g>
	<g id="clipSmallCircles" clip-rule="nonzero">
			<circle fill="#ffffff" cx="1500" cy="1474" r="934.6"/>
			<circle fill="#000000" cx="1501.1" cy="998.8" r="102.4"/>
			<circle fill="#000000" cx="1902" cy="1236.2" r="102.4"/>
			<circle fill="#000000" cx="1903.2" cy="1706.6" r="102.4"/>
			<circle fill="#000000" cx="1497.5" cy="1946.3" r="102.4"/>
			<circle fill="#000000" cx="1096.5" cy="1711.8" r="102.4"/>
			<circle fill="#000000" cx="1099.9" cy="1238.8" r="102.4"/>
	</g>
	<g id="clipSmallCircles2" clip-rule="nonzero">
			<circle fill="#ffffff" cx="1500" cy="1474" r="934.6"/>
			<circle fill="#000000" cx="1501.1" cy="998.8" r="102.4"/>
			<circle fill="#000000" cx="1902" cy="1236.2" r="102.4"/>
			<circle fill="#000000" cx="1903.2" cy="1706.6" r="102.4"/>
			<circle fill="#000000" cx="1497.5" cy="1946.3" r="102.4"/>
			<circle fill="#000000" cx="1096.5" cy="1711.8" r="102.4"/>
			<circle fill="#000000" cx="1099.9" cy="1238.8" r="102.4"/>
			<circle fill="#000000" cx="1500" cy="1465.2" r="156.5"/>
	</g>
	<g id="clipKey">
			<rect fill="#ffffff" x="0" y="0"  width="3000" height="3000"/>
			<path id="clipKeyPath" opacity="1" fill="#000000" d="M1663,2335.9c-5.5-6-13.3-7.5-24.5-7.5c-16.3-4-26.5,1.5-72-20.3s-46.5-68.3-46.8-82.5s3-30,6.3-41
				s19-30.3,28.8-40.5s24.3-10.5,33-8c8.8,2.5,11,11,14.5,20.5s-3.3,23-4.3,25.5s-6,7.8-10.2,10.3s-9.8,9-11.8,30.3
				c7.3,39,45.8,40,45.8,40s55.3-5.5,55-78.5s-78.3-87.8-93-88.5s-29.5,5-39.8,8.5s-21,12-30.3,22s-15,8.5-15,8.5
				c-4.6,0.7-8-1.8-11.8-4.5s-17-16.3-24.1-21.5c-7.1-5.3-38.9-13.1-50.4-13.1c-96.5,12.7-91,84.3-92,93.8s12,77.5,57,73.3
				s43.8-37.3,43.8-37.3s-0.5-13.8-0.8-18s-7.8-13.8-12-16.3s-9.3-8.8-10.8-13.3s-2,4.8-3-15.5s15-28,23.8-27.5
				c43,1,60,61.5,59.3,98.3s-18,52.3-30.5,65.8s-70,28-87.8,29.5s-23.5,4.5-30.5,11.5s-18.8,29.5-24,36.5s-13,26.5-14.5,60
				c-0.3,70,39.5,108.3,86.5,111s67.8-44.3,68-68.3s-8.8-30.5-14.5-39.8s-16.3-12.3-27-12.5s-19.3,6.3-26,13s-15.3,7-15.3,7
				s-25.3,0.5-27.5-30c4-28.8,22.5-50.3,76.8-53.8c52.5-3.4,85.1,58.5,87.1,62.5c0.2-0.1,0.7-0.2,1.4-0.3
				c21.5-45.5,55.8-62.5,89.3-62.8s74.3,27.3,73.5,54.8s-24.5,29.3-28.8,29s-9-1.8-13.5-6s-6-9.5-27.3-13.8
				c-22.3-1.3-39.5,21.8-41,56.8s29.5,64,73.8,64s81.5-49.8,81-108S1668.5,2341.9,1663,2335.9z"/>
			<rect id="textBgr" fill="#000000" opacity="1" id="textBgr" x="1552.2" y="1221.2" class="st8" width="1088.7" height="474"/>
	</g>
</svg>
