<?xml version="1.0" encoding="utf-8"?>
<!-- Generator: Adobe Illustrator 19.2.1, SVG Export Plug-In . SVG Version: 6.00 Build 0)  -->
<svg version="1.1" id="Warstwa_1" xmlns="http://www.w3.org/2000/svg" xmlns:xlink="http://www.w3.org/1999/xlink" x="0px" y="0px"
	 viewBox="0 0 2362 1181" style="enable-background:new 0 0 2362 1181;" xml:space="preserve">
<style type="text/css">
	.st0{fill:#C6C6C5;fill-opacity:0;stroke:#CD2A26;stroke-width:46;stroke-linejoin:round;}
	.st1{enable-background:new    ;}
	.st2{fill:#353535;}
	.st3{fill:#CD2A26;}
</style>
<rect x="260.8" y="241.4" class="st0" width="1878" height="743"/>
<g class="st1">
	<path class="st2" d="M478.4,446.3V775h-76.6V446.3H478.4z"/>
	<path class="st2" d="M663.6,446.3v65.8h-45.5V775h-76.6V512.1h-45.3v-65.8H663.6z"/>
	<path class="st2" d="M721.6,446.3v29.4c0,15.3-1.6,27.9-4.9,37.9c-3.3,9.9-9,18.3-17,25.2c-8.1,6.8-17.2,11.5-27.4,13.9V529
		c7.3-4.5,11.4-10.6,12.4-18.3h-12.4v-64.4H721.6z"/>
	<path class="st2" d="M906,545.8h-71.2v-24.4c0-11.4-0.9-18.6-2.7-21.7c-1.8-3.1-4.9-4.7-9.1-4.7c-4.6,0-8.1,2.1-10.5,6.3
		s-3.5,10.6-3.5,19.1c0,11,1.3,19.2,4,24.8c2.5,5.6,9.8,12.3,21.7,20.1c34.1,22.6,55.6,41.1,64.5,55.6c8.9,14.5,13.3,37.8,13.3,70
		c0,23.4-2.5,40.7-7.4,51.8c-4.9,11.1-14.4,20.4-28.5,27.9c-14.1,7.5-30.5,11.3-49.1,11.3c-20.5,0-38-4.3-52.5-13
		c-14.5-8.7-24-19.7-28.5-33.1c-4.5-13.4-6.7-32.4-6.7-57v-21.5h71.2v40c0,12.3,1,20.2,3,23.8c2,3.5,5.6,5.3,10.6,5.3
		c5.1,0,8.9-2.2,11.4-6.7c2.5-4.5,3.7-11.1,3.7-19.9c0-19.4-2.4-32-7.1-38c-4.9-6-16.8-15.9-35.9-29.8
		c-19.1-14.1-31.7-24.3-37.9-30.7c-6.2-6.4-11.3-15.2-15.4-26.4c-4.1-11.2-6.1-25.6-6.1-43c0-25.2,2.9-43.6,8.6-55.2
		c5.8-11.6,15.1-20.7,27.9-27.3c12.9-6.6,28.4-9.8,46.6-9.8c19.9,0,36.9,3.6,50.9,10.8c14,7.2,23.3,16.2,27.9,27.1
		c4.6,10.9,6.8,29.4,6.8,55.5V545.8z"/>
</g>
<g>
	<path class="st2" d="M1426.5,446.3v65.8H1381V775h-76.6V512.1H1259v-65.8H1426.5z"/>
	<path class="st2" d="M1444,446.3h54.2c36.2,0,60.6,1.6,73.5,4.7c12.8,3.1,23.2,11.1,31.3,23.9c8.1,12.8,12.1,33.2,12.1,61.2
		c0,25.6-2.9,42.8-8.6,51.6c-5.7,8.8-16.9,14.1-33.7,15.8c15.2,4.2,25.4,9.8,30.6,16.9c5.2,7,8.5,13.5,9.7,19.4
		c1.3,5.9,1.9,22.1,1.9,48.6V775h-71.2V665.8c0-17.6-1.2-28.5-3.7-32.7c-2.5-4.2-9-6.3-19.6-6.3V775H1444V446.3z M1520.6,502.6v73.1
		c8.6,0,14.7-1.3,18.1-4c3.5-2.6,5.2-11.2,5.2-25.7V528c0-10.4-1.7-17.3-5-20.5C1535.6,504.2,1529.5,502.6,1520.6,502.6z"/>
	<path class="st2" d="M1777.3,446.3l43.8,328.7h-78.3l-4.1-59.1h-27.4l-4.6,59.1h-79.2l39.1-328.7H1777.3z M1736.6,657.7
		c-3.9-37.2-7.8-83.2-11.7-138.1c-7.8,62.9-12.7,109-14.7,138.1H1736.6z"/>
	<path class="st2" d="M1834.1,446.3h77.2c20.9,0,36.9,1.8,48.1,5.5c11.2,3.7,19.7,8.9,25.3,15.8c5.6,6.9,9.5,15.3,11.5,25.1
		c2,9.8,3,25,3,45.6v28.6c0,21-1.9,36.3-5.8,45.9c-3.9,9.6-11,17-21.4,22.1c-10.4,5.1-23.9,7.7-40.7,7.7h-20.6V775h-76.6V446.3z
		 M1910.7,502.6v83.6c2.2,0.1,4.1,0.2,5.6,0.2c7,0,11.9-1.9,14.7-5.8s4.1-11.9,4.1-24.1v-27c0-11.2-1.6-18.5-4.7-21.9
		C1927.2,504.3,1920.7,502.6,1910.7,502.6z"/>
</g>
<g>
	<path class="st3" d="M1086.8,561c-52.8,0-95.6,42.8-95.6,95.6c0,52.8,42.8,95.6,95.6,95.6s95.6-42.8,95.6-95.6
		C1182.5,603.8,1139.6,561,1086.8,561z M1106.3,647.9c0,0-0.5,13.4-9.8,19.5c-2.3,1.9-1.9,3-1.9,3v32.6c0,0-3.5,6.8-9.3,7
		c-5.7,0.2-8.6-4.2-9.3-7.5c-0.7-3.3,0-30,0-30l-1.9-4.2c0,0-10.3-8-9.8-22c0,0,1.9-22.5,22.5-21.6
		C1107.5,625.6,1106.3,647.9,1106.3,647.9z"/>
	<path class="st3" d="M1114.6,687.2l30.1-25.3l51.3,61l-30.1,25.3L1114.6,687.2z"/>
	<path class="st3" d="M1055.9,561h-49.2c0,0-1.9-93,85.3-92.8c87.2,0.2,80.2,74.5,80.2,145.9c-11.5-8.4-40.1-33.7-45.7-44.5
		c-1.6-11.7-0.9-52.1-36.8-54.6C1053.7,517.5,1055.9,561,1055.9,561z"/>
</g>
</svg>
